<?xml version="1.0" encoding="UTF-8"?>
<svg id="Layer_1" data-name="Layer 1" xmlns="http://www.w3.org/2000/svg" viewBox="0 0 180 180">
  <defs>
    <style>
      .cls-1 {
        fill: #ff1493;
      }
    </style>
  </defs>
  <g>
    <ellipse class="cls-1" cx="28.02" cy="120.98" rx="20.65" ry="10.32"/>
    <path class="cls-1" d="M90,162.29c-11.4,.02-20.65-4.61-20.65-10.32,0-5.71,9.22-10.32,20.65-10.32,11.43,0,20.68,4.63,20.65,10.32,0,5.71-9.22,10.32-20.65,10.32Z"/>
    <path class="cls-1" d="M69.35,151.97c0-11.4-18.51-20.65-41.33-20.66,11.43,0,20.65-4.61,20.65-10.32,.03,11.41,18.54,20.66,41.33,20.66-11.43,0-20.65,4.61-20.65,10.32Z"/>
    <ellipse class="cls-1" cx="90" cy="89.99" rx="20.65" ry="10.32"/>
    <path class="cls-1" d="M151.98,131.3c-11.4,.02-20.65-4.61-20.65-10.32,0-5.71,9.22-10.32,20.65-10.32,11.43,0,20.68,4.63,20.65,10.32,0,5.71-9.22,10.32-20.65,10.32Z"/>
    <path class="cls-1" d="M131.33,120.98c0-11.4-18.51-20.65-41.33-20.66,11.43,0,20.65-4.61,20.65-10.32,.03,11.41,18.54,20.66,41.33,20.66-11.43,0-20.65,4.61-20.65,10.32Z"/>
    <path class="cls-1" d="M28.02,110.66c22.79,0,41.3-9.25,41.33-20.66,0,5.71,9.22,10.32,20.65,10.32-22.82,.02-41.33,9.27-41.33,20.66,0-5.71-9.22-10.32-20.65-10.32Z"/>
  </g>
  <g>
    <ellipse class="cls-1" cx="28.02" cy="59.02" rx="20.65" ry="10.32"/>
    <path class="cls-1" d="M90,100.33c-11.4,.02-20.65-4.61-20.65-10.32,0-5.71,9.22-10.32,20.65-10.32,11.43,0,20.68,4.63,20.65,10.32,0,5.71-9.22,10.32-20.65,10.32Z"/>
    <path class="cls-1" d="M90,38.36c-11.43,0-20.65-4.61-20.65-10.32s9.22-10.32,20.65-10.32,20.65,4.61,20.65,10.32c0,5.71-9.22,10.32-20.65,10.32Z"/>
    <path class="cls-1" d="M151.98,69.34c-11.4,.02-20.65-4.61-20.65-10.32,0-5.71,9.22-10.32,20.65-10.32,11.43,0,20.68,4.63,20.65,10.32,0,5.71-9.22,10.32-20.65,10.32Z"/>
    <path class="cls-1" d="M131.33,59.02c0-11.4-18.51-20.65-41.33-20.66,11.43,0,20.65-4.61,20.65-10.32,.03,11.41,18.54,20.66,41.33,20.66-11.43,0-20.65,4.61-20.65,10.32Z"/>
    <path class="cls-1" d="M90,79.68c22.79,0,41.3-9.25,41.33-20.66,0,5.71,9.22,10.32,20.65,10.32-22.82,.02-41.33,9.27-41.33,20.66,0-5.71-9.22-10.32-20.65-10.32Z"/>
    <path class="cls-1" d="M28.02,48.7c22.79,0,41.3-9.25,41.33-20.66,0,5.71,9.22,10.32,20.65,10.32-22.82,.02-41.33,9.27-41.33,20.66,0-5.71-9.22-10.32-20.65-10.32Z"/>
  </g>
</svg>