<?xml version="1.0" encoding="utf-8"?>
<!-- Generator: Adobe Illustrator 26.5.0, SVG Export Plug-In . SVG Version: 6.00 Build 0)  -->
<svg version="1.1" id="Layer_1" xmlns="http://www.w3.org/2000/svg" xmlns:xlink="http://www.w3.org/1999/xlink" x="0px" y="0px"
	 viewBox="0 0 24 24" style="enable-background:new 0 0 24 24;" xml:space="preserve">
<style type="text/css">
	.st0{fill:#FFFFFF;}
</style>
<path class="st0" d="M5,22c-0.8,0-1.5-0.3-2.1-0.9S2,19.8,2,19c0-0.6,0.2-1.2,0.6-1.7c0.4-0.5,0.9-0.9,1.4-1.1V7.8
	C3.4,7.6,2.9,7.2,2.6,6.7S2,5.6,2,5c0-0.8,0.3-1.5,0.9-2.1S4.2,2,5,2c0.7,0,1.2,0.2,1.7,0.6S7.6,3.4,7.8,4h8.4
	c0.2-0.6,0.6-1.1,1.1-1.4C17.7,2.2,18.3,2,19,2c0.8,0,1.5,0.3,2.1,0.9C21.7,3.5,22,4.2,22,5c0,0.7-0.2,1.3-0.6,1.8S20.6,7.6,20,7.8
	v8.3c0.6,0.2,1.1,0.6,1.4,1.1c0.4,0.5,0.6,1.1,0.6,1.7c0,0.8-0.3,1.5-0.9,2.1C20.5,21.7,19.8,22,19,22c-0.6,0-1.2-0.2-1.7-0.6
	s-0.9-0.9-1.1-1.4H7.8c-0.2,0.6-0.6,1.1-1.1,1.4S5.7,22,5,22z M5,6c0.3,0,0.5-0.1,0.7-0.3S6,5.3,6,5S5.9,4.5,5.7,4.3
	C5.5,4.1,5.3,4,5,4S4.5,4.1,4.3,4.3C4.1,4.5,4,4.7,4,5s0.1,0.5,0.3,0.7C4.5,5.9,4.7,6,5,6z M19,6c0.3,0,0.5-0.1,0.7-0.3
	C19.9,5.5,20,5.3,20,5s-0.1-0.5-0.3-0.7C19.5,4.1,19.3,4,19,4s-0.5,0.1-0.7,0.3C18.1,4.5,18,4.7,18,5s0.1,0.5,0.3,0.7S18.7,6,19,6z
	 M7.8,18h8.4c0.1-0.4,0.4-0.8,0.7-1.1s0.7-0.5,1.1-0.7V7.8c-0.4-0.2-0.8-0.4-1.1-0.7c-0.3-0.3-0.5-0.7-0.7-1.1H7.8
	C7.7,6.4,7.4,6.8,7.1,7.1C6.8,7.4,6.4,7.7,6,7.8v8.3c0.4,0.2,0.8,0.4,1.1,0.7C7.4,17.2,7.7,17.6,7.8,18z M19,20
	c0.3,0,0.5-0.1,0.7-0.3c0.2-0.2,0.3-0.4,0.3-0.7s-0.1-0.5-0.3-0.7C19.5,18.1,19.3,18,19,18s-0.5,0.1-0.7,0.3
	C18.1,18.5,18,18.7,18,19s0.1,0.5,0.3,0.7C18.5,19.9,18.7,20,19,20z M5,20c0.3,0,0.5-0.1,0.7-0.3C5.9,19.5,6,19.3,6,19
	s-0.1-0.5-0.3-0.7C5.5,18.1,5.3,18,5,18s-0.5,0.1-0.7,0.3C4.1,18.5,4,18.7,4,19s0.1,0.5,0.3,0.7C4.5,19.9,4.7,20,5,20z"/>
</svg>
