<?xml version="1.0" encoding="utf-8"?>
<!-- Generator: Adobe Illustrator 26.5.0, SVG Export Plug-In . SVG Version: 6.00 Build 0)  -->
<svg version="1.1" id="Layer_1" xmlns="http://www.w3.org/2000/svg" xmlns:xlink="http://www.w3.org/1999/xlink" x="0px" y="0px"
	 viewBox="0 0 48 48" style="enable-background:new 0 0 48 48;" xml:space="preserve">
<style type="text/css">
	.st0{fill:#FFFFFF;}
</style>
<path class="st0" d="M6,42v-3h3v3H6z M6,33.8v-3h3v3H6z M6,17.2v-3h3v3H6z M6,9V6h3v3H6z M14.2,42v-3h3v3H14.2z M14.2,9V6h3v3H14.2z
	 M30.8,42v-3h3v3H30.8z M39,42v-3h3v3H39z M39,33.8v-3h3v3H39z M39,17.2v-3h3v3H39z M39,9V6h3v3H39z M30.8,9V6h3v3H30.8z M22.5,42
	V25.5H6v-3h16.5V6h3v16.5H42v3H25.5V42H22.5z"/>
</svg>
