<?xml version="1.0" encoding="utf-8"?>
<!-- Generator: Adobe Illustrator 26.5.0, SVG Export Plug-In . SVG Version: 6.00 Build 0)  -->
<svg version="1.1" id="Layer_1" xmlns="http://www.w3.org/2000/svg" xmlns:xlink="http://www.w3.org/1999/xlink" x="0px" y="0px"
	 viewBox="0 0 48 48" style="enable-background:new 0 0 48 48;" xml:space="preserve">
<style type="text/css">
	.st0{fill:#FFFFFF;}
</style>
<path class="st0" d="M26.2,44c-2.1,0-4.2-0.3-6.2-0.9c-2-0.6-3.8-1.6-5.4-2.9l2.1-2.2c1.4,1.1,2.9,1.9,4.4,2.3
	c1.6,0.5,3.2,0.7,5.1,0.7c4.1,0,7.5-1.5,10.5-4.3c2.9-2.9,4.3-6.4,4.3-10.5s-1.5-7.5-4.3-10.4c-2.9-2.9-6.4-4.3-10.5-4.3h-2.1
	l4.2,4.2l-2.2,2.2l-7.9-7.9L26.1,2l2.2,2.2l-4.2,4.2h2.1c4.9,0,9,1.8,12.5,5.2S44,21.3,44,26.2c0,2.4-0.5,4.7-1.4,6.9
	c-1,2.1-2.2,4-3.8,5.6c-1.6,1.6-3.5,2.9-5.7,3.9S28.6,44,26.2,44z M13.1,37L2,25.9l11.1-11.1l11.1,11.1L13.1,37z M13.1,32.9l6.8-6.8
	l-6.8-6.8l-6.8,6.8L13.1,32.9z"/>
</svg>
