<?xml version="1.0" encoding="utf-8"?>
<!-- Generator: Adobe Illustrator 26.5.0, SVG Export Plug-In . SVG Version: 6.00 Build 0)  -->
<svg version="1.1" id="Layer_1" xmlns="http://www.w3.org/2000/svg" xmlns:xlink="http://www.w3.org/1999/xlink" x="0px" y="0px"
	 viewBox="0 0 48 48" style="enable-background:new 0 0 48 48;" xml:space="preserve">
<style type="text/css">
	.st0{fill:#FFFFFF;}
</style>
<path class="st0" d="M42,42h-3v-3h3V42z M33.8,42h-3v-3h3V42z M25.5,42h-3v-3h3V42z M17.3,42h-3v-3h3V42z M9,42H6v-3h3V42z M42,33.7
	h-3v-3h3V33.7z M9,33.7H6v-3h3V33.7z M42,25.5h-3v-3h3V25.5z M42,17.2h-3v-3h3V17.2z M42,9h-3V6h3V9z M33.8,9h-3V6h3V9z M25.5,6v3
	h-9.8c-1.9,0-3.5,0.7-4.8,2S9,13.8,9,15.7v9.8H6v-9.8c0-2.7,1-5,2.9-6.9C10.8,7,13.1,6,15.8,6H25.5z"/>
</svg>
