<?xml version="1.0" encoding="utf-8"?>
<!-- Generator: Adobe Illustrator 26.5.0, SVG Export Plug-In . SVG Version: 6.00 Build 0)  -->
<svg version="1.1" id="Layer_1" xmlns="http://www.w3.org/2000/svg" xmlns:xlink="http://www.w3.org/1999/xlink" x="0px" y="0px"
	 viewBox="0 0 48 48" style="enable-background:new 0 0 48 48;" xml:space="preserve">
<style type="text/css">
	.st0{fill:#FFFFFF;}
</style>
<path class="st0" d="M6,6h3v3H6V6z M14.2,6h3v3h-3V6z M22.5,6h3v3h-3V6z M30.8,6h3v3h-3V6z M39,6h3v3h-3V6z M6,14.2h3v3H6V14.2z
	 M39,14.2h3v3h-3V14.2z M6,22.5h3v3H6V22.5z M6,30.8h3v3H6V30.8z M6,39h3v3H6V39z M14.2,39h3v3h-3V39z M22.5,42v-3h9.8
	c1.9,0,3.5-0.7,4.8-2c1.3-1.3,2-2.9,2-4.8v-9.8h3v9.8c0,2.7-1,5-2.9,6.9C37.2,41,34.9,42,32.2,42H22.5z"/>
</svg>
