<?xml version="1.0" encoding="utf-8"?>
<!-- Generator: Adobe Illustrator 26.5.0, SVG Export Plug-In . SVG Version: 6.00 Build 0)  -->
<svg version="1.1" id="Layer_1" xmlns="http://www.w3.org/2000/svg" xmlns:xlink="http://www.w3.org/1999/xlink" x="0px" y="0px"
	 viewBox="0 0 48 48" style="enable-background:new 0 0 48 48;" xml:space="preserve">
<style type="text/css">
	.st0{fill:#FFFFFF;}
</style>
<path class="st0" d="M6,42v-3h3v3H6z M6,33.8v-3h3v3H6z M6,25.5v-3h3v3H6z M6,17.2v-3h3v3H6z M6,9V6h3v3H6z M14.2,42v-3h3v3H14.2z
	 M14.2,9V6h3v3H14.2z M22.5,42v-3h3v3H22.5z M30.8,42v-3h3v3H30.8z M39,42v-3h3v3H39z M39,33.8v-3h3v3H39z M42,25.5h-3v-9.8
	c0-1.9-0.6-3.5-2-4.8c-1.3-1.3-2.9-2-4.8-2h-9.8V6h9.8c2.7,0,5,1,6.9,2.9c1.9,1.9,2.9,4.2,2.9,6.9V25.5z"/>
</svg>
