<?xml version="1.0" encoding="utf-8"?>
<!-- Generator: Adobe Illustrator 26.5.0, SVG Export Plug-In . SVG Version: 6.00 Build 0)  -->
<svg version="1.1" id="Layer_1" xmlns="http://www.w3.org/2000/svg" xmlns:xlink="http://www.w3.org/1999/xlink" x="0px" y="0px"
	 viewBox="0 0 48 48" style="enable-background:new 0 0 48 48;" xml:space="preserve">
<style type="text/css">
	.st0{fill:#FFFFFF;}
</style>
<path class="st0" d="M42,6v3h-3V6H42z M42,14.2v3h-3v-3H42z M42,22.5v3h-3v-3H42z M42,30.7v3h-3v-3H42z M42,39v3h-3v-3H42z M33.8,6
	v3h-3V6H33.8z M33.8,39v3h-3v-3H33.8z M25.5,6v3h-3V6H25.5z M17.2,6v3h-3V6H17.2z M9,6v3H6V6H9z M9,14.2v3H6v-3H9z M6,22.5h3v9.8
	c0,1.9,0.7,3.5,2,4.8s2.9,2,4.8,2h9.7v3h-9.7c-2.7,0-5-1-6.9-2.9C7,37.2,6,34.9,6,32.2V22.5z"/>
</svg>
