<?xml version="1.0" encoding="utf-8"?>
<!-- Generator: Adobe Illustrator 26.5.0, SVG Export Plug-In . SVG Version: 6.00 Build 0)  -->
<svg version="1.1" id="Layer_1" xmlns="http://www.w3.org/2000/svg" xmlns:xlink="http://www.w3.org/1999/xlink" x="0px" y="0px"
	 viewBox="0 0 48 48" style="enable-background:new 0 0 48 48;" xml:space="preserve">
<style type="text/css">
	.st0{fill:#FFFFFF;}
</style>
<path class="st0" d="M39.1,42.3l-15.1-15l-5.9,5.8c0.4,0.6,0.6,1.1,0.7,1.7c0.1,0.5,0.1,1.1,0.1,1.8c0,2.1-0.7,3.9-2.1,5.3
	c-1.4,1.4-3.2,2.2-5.4,2.2s-3.9-0.7-5.3-2.2C4.7,40.4,4,38.6,4,36.5c0-2.1,0.7-3.9,2.2-5.4S9.4,29,11.5,29c0.6,0,1.2,0.1,1.8,0.2
	c0.6,0.2,1.2,0.4,1.8,0.8l5.8-5.8L15,18.3c-0.6,0.3-1.1,0.5-1.7,0.6c-0.6,0.1-1.2,0.1-1.8,0.1c-2.1,0-3.9-0.7-5.3-2.1S4,13.6,4,11.5
	s0.7-3.9,2.2-5.3S9.4,4,11.5,4s3.9,0.7,5.4,2.1S19,9.4,19,11.5c0,0.6,0,1.2-0.1,1.8c-0.1,0.6-0.3,1.1-0.5,1.6L44,40.6v1.7H39.1z
	 M30,21.6l-3.3-3.3L39.1,5.9H44v1.7L30,21.6z M11.5,16c1.3,0,2.3-0.4,3.2-1.3c0.9-0.9,1.3-1.9,1.3-3.2s-0.4-2.3-1.3-3.2
	C13.8,7.4,12.8,7,11.5,7S9.2,7.4,8.3,8.3S7,10.2,7,11.5s0.4,2.3,1.3,3.2C9.2,15.6,10.2,16,11.5,16z M24.1,25.1
	c0.3,0,0.5-0.1,0.7-0.3s0.3-0.4,0.3-0.7c0-0.3-0.1-0.5-0.3-0.7s-0.4-0.3-0.7-0.3c-0.3,0-0.5,0.1-0.7,0.3s-0.3,0.4-0.3,0.7
	c0,0.3,0.1,0.5,0.3,0.7S23.9,25.1,24.1,25.1z M11.5,41c1.3,0,2.3-0.4,3.2-1.3c0.9-0.9,1.3-1.9,1.3-3.2s-0.4-2.3-1.3-3.2
	c-0.9-0.9-1.9-1.3-3.2-1.3s-2.3,0.4-3.2,1.3C7.4,34.2,7,35.2,7,36.5s0.4,2.3,1.3,3.2C9.2,40.6,10.2,41,11.5,41z"/>
</svg>
