<?xml version="1.0" encoding="utf-8"?>
<!-- Generator: Adobe Illustrator 26.5.0, SVG Export Plug-In . SVG Version: 6.00 Build 0)  -->
<svg version="1.1" id="Layer_1" xmlns="http://www.w3.org/2000/svg" xmlns:xlink="http://www.w3.org/1999/xlink" x="0px" y="0px"
	 viewBox="0 0 48 48" style="enable-background:new 0 0 48 48;" xml:space="preserve">
<style type="text/css">
	.st0{fill:#FFFFFF;}
</style>
<path class="st0" d="M9,42c-0.8,0-1.5-0.3-2.1-0.9C6.3,40.5,6,39.8,6,39V9c0-0.8,0.3-1.5,0.9-2.1S8.2,6,9,6h20.2l-3,3H9v30h30V21.6
	l3-3V39c0,0.8-0.3,1.5-0.9,2.1C40.5,41.7,39.8,42,39,42H9z M18,30v-8.5L37.1,2.4c0.3-0.3,0.6-0.5,1-0.7c0.4-0.1,0.7-0.2,1.1-0.2
	s0.7,0.1,1.1,0.2c0.4,0.2,0.7,0.4,1,0.7l4.1,4.2c0.3,0.3,0.5,0.6,0.7,1c0.2,0.4,0.2,0.7,0.2,1.1c0,0.4-0.1,0.8-0.2,1.1
	c-0.1,0.4-0.4,0.7-0.7,1L26.5,30H18z M43.4,8.7l-4.2-4.2L43.4,8.7z M21,27h4.2l12.7-12.7l-2.2-2.1l-2.1-2.1L21,22.7V27z M35.8,12.2
	l-2.1-2.1L35.8,12.2l2.2,2.1L35.8,12.2z"/>
</svg>
