<?xml version="1.0" encoding="utf-8"?>
<!-- Generator: Adobe Illustrator 26.5.0, SVG Export Plug-In . SVG Version: 6.00 Build 0)  -->
<svg version="1.1" id="Layer_1" xmlns="http://www.w3.org/2000/svg" xmlns:xlink="http://www.w3.org/1999/xlink" x="0px" y="0px"
	 viewBox="0 0 48 48" style="enable-background:new 0 0 48 48;" xml:space="preserve">
<style type="text/css">
	.st0{fill:#FFFFFF;}
</style>
<path class="st0" d="M7,40c-0.8,0-1.5-0.3-2.1-0.9C4.3,38.5,4,37.8,4,37V11c0-0.8,0.3-1.5,0.9-2.1S6.2,8,7,8h14.1l3,3H41
	c0.8,0,1.5,0.3,2.1,0.9S44,13.2,44,14H22.8l-3-3H7v26l5.1-20H47l-5.3,20.7c-0.2,0.8-0.6,1.4-1.1,1.8c-0.5,0.4-1.2,0.5-2,0.5H7z
	 M10.2,37h28.6L43,20H14.4L10.2,37z M10.2,37l4.2-17L10.2,37z M7,14v-3V14z"/>
</svg>
