<?xml version="1.0" encoding="utf-8"?>
<!-- Generator: Adobe Illustrator 26.5.0, SVG Export Plug-In . SVG Version: 6.00 Build 0)  -->
<svg version="1.1" id="Layer_1" xmlns="http://www.w3.org/2000/svg" xmlns:xlink="http://www.w3.org/1999/xlink" x="0px" y="0px"
	 viewBox="0 0 48 48" style="enable-background:new 0 0 48 48;" xml:space="preserve">
<style type="text/css">
	.st0{fill:#FFFFFF;}
</style>
<path class="st0" d="M24.2,35.7c0.5,0,1-0.2,1.4-0.6c0.4-0.4,0.5-0.8,0.5-1.3s-0.2-1-0.5-1.3c-0.4-0.4-0.8-0.6-1.4-0.6
	s-1,0.2-1.4,0.6c-0.4,0.4-0.5,0.8-0.5,1.3s0.2,1,0.5,1.3C23.2,35.5,23.7,35.7,24.2,35.7z M22.5,28.4h2.9c0-0.9,0.1-1.7,0.3-2.4
	c0.2-0.7,0.9-1.5,2-2.5c1-0.9,1.8-1.7,2.2-2.6c0.4-0.8,0.6-1.8,0.6-2.8c0-1.8-0.6-3.2-1.7-4.2s-2.7-1.6-4.6-1.6
	c-1.6,0-3.1,0.4-4.3,1.2s-2.2,1.9-2.7,3.4l2.6,1c0.4-0.9,0.9-1.7,1.7-2.2c0.7-0.5,1.6-0.8,2.6-0.8c1.1,0,2.1,0.3,2.8,0.9
	c0.7,0.6,1.1,1.4,1.1,2.4c0,0.7-0.2,1.4-0.6,2.1s-1.1,1.3-1.9,2c-1,0.9-1.7,1.7-2.2,2.6C22.7,25.8,22.5,26.9,22.5,28.4z M24,44
	c-2.7,0-5.3-0.5-7.8-1.6s-4.6-2.5-6.4-4.3s-3.2-3.9-4.3-6.4S4,26.7,4,24c0-2.8,0.5-5.4,1.6-7.8s2.5-4.5,4.3-6.3s3.9-3.2,6.4-4.3
	S21.3,4,24,4c2.8,0,5.4,0.5,7.8,1.6s4.6,2.5,6.4,4.3s3.2,3.9,4.3,6.3c1.1,2.4,1.6,5,1.6,7.8c0,2.7-0.5,5.3-1.6,7.8
	c-1,2.4-2.5,4.6-4.3,6.4s-3.9,3.2-6.4,4.3S26.8,44,24,44z M24,41c4.7,0,8.8-1.7,12-5c3.3-3.3,5-7.3,5-12c0-4.7-1.6-8.8-5-12.1
	c-3.3-3.3-7.3-5-12-5c-4.7,0-8.7,1.7-12,5S7,19.3,7,24c0,4.7,1.7,8.7,5,12C15.3,39.3,19.3,41,24,41z"/>
</svg>
