<?xml version="1.0" encoding="utf-8"?>
<!-- Generator: Adobe Illustrator 26.5.0, SVG Export Plug-In . SVG Version: 6.00 Build 0)  -->
<svg version="1.1" id="Layer_1" xmlns="http://www.w3.org/2000/svg" xmlns:xlink="http://www.w3.org/1999/xlink" x="0px" y="0px"
	 viewBox="0 0 48 48" style="enable-background:new 0 0 48 48;" xml:space="preserve">
<style type="text/css">
	.st0{fill:#FFFFFF;}
</style>
<path class="st0" d="M22.6,34h3V22h-3V34z M24,18.3c0.5,0,0.9-0.2,1.2-0.5c0.3-0.3,0.5-0.7,0.5-1.1c0-0.5-0.2-0.9-0.5-1.2
	C24.9,15.2,24.5,15,24,15c-0.5,0-0.9,0.2-1.2,0.5s-0.5,0.7-0.5,1.2c0,0.5,0.2,0.8,0.5,1.1C23.1,18.1,23.5,18.3,24,18.3z M24,44
	c-2.8,0-5.3-0.5-7.8-1.6s-4.5-2.5-6.4-4.3s-3.2-3.9-4.3-6.4C4.5,29.3,4,26.7,4,24s0.5-5.4,1.6-7.8c1-2.4,2.5-4.5,4.3-6.3
	s3.9-3.2,6.4-4.3C18.7,4.5,21.3,4,24,4s5.4,0.5,7.8,1.6c2.4,1.1,4.5,2.5,6.3,4.3s3.2,3.9,4.3,6.3c1.1,2.4,1.6,5,1.6,7.8
	s-0.5,5.3-1.6,7.8c-1,2.4-2.5,4.5-4.3,6.4c-1.8,1.8-3.9,3.2-6.4,4.3S26.8,44,24,44z M24,41c4.7,0,8.7-1.7,12-5c3.3-3.3,5-7.3,5-12.1
	s-1.6-8.7-4.9-12C32.8,8.6,28.7,7,24,7c-4.7,0-8.7,1.6-12,4.9C8.7,15.2,7,19.3,7,24c0,4.7,1.7,8.7,5,12C15.3,39.3,19.3,41,24,41z"/>
</svg>
