<?xml version="1.0" encoding="utf-8"?>
<!-- Generator: Adobe Illustrator 26.5.0, SVG Export Plug-In . SVG Version: 6.00 Build 0)  -->
<svg version="1.1" id="Layer_1" xmlns="http://www.w3.org/2000/svg" xmlns:xlink="http://www.w3.org/1999/xlink" x="0px" y="0px"
	 viewBox="0 0 48 48" style="enable-background:new 0 0 48 48;" xml:space="preserve">
<style type="text/css">
	.st0{fill:#FFFFFF;}
</style>
<path class="st0" d="M18,44c-3.8,0-7.1-1.4-9.9-4.1S4,33.8,4,30s1.4-7.1,4.1-9.9s6-4.1,9.9-4.1s7.1,1.4,9.9,4.1s4.1,6,4.1,9.9
	s-1.4,7.1-4.1,9.9S21.8,44,18,44z M18,41c3,0,5.6-1.1,7.8-3.2S29,33.1,29,30c0-3-1.1-5.6-3.2-7.8S21.1,19,18,19s-5.6,1.1-7.8,3.2
	S7,26.9,7,30s1.1,5.6,3.2,7.8C12.4,39.9,14.9,41,18,41z M33.4,31.6c0-0.2,0.1-0.5,0.1-0.8c0-0.3,0-0.6,0-0.8c0-4.2-1.5-7.9-4.6-10.9
	s-6.7-4.6-10.9-4.6c-0.3,0-0.5,0-0.8,0c-0.3,0-0.5,0-0.8,0.1c0.7-3,2.4-5.5,4.9-7.6s5.4-3,8.6-3c3.8,0,7.1,1.4,9.9,4.1
	s4.1,6,4.1,9.9c0,3.2-1,6.1-3,8.6C39,29.1,36.4,30.8,33.4,31.6z"/>
</svg>
